<?xml version="1.0" encoding="UTF-8" standalone="no"?>
<!DOCTYPE svg PUBLIC "-//W3C//DTD SVG 1.1//EN"
 "http://www.w3.org/Graphics/SVG/1.1/DTD/svg11.dtd">
<!-- Generated by graphviz version 2.43.0 (0)
 -->
<!-- Title: serialization_modes Pages: 1 -->
<svg width="1156pt" height="630pt"
 viewBox="0.00 0.00 1156.00 630.00" xmlns="http://www.w3.org/2000/svg" xmlns:xlink="http://www.w3.org/1999/xlink">
<g id="graph0" class="graph" transform="scale(1 1) rotate(0) translate(4 626)">
<title>serialization_modes</title>
<polygon fill="#0d1117" stroke="transparent" points="-4,4 -4,-626 1152,-626 1152,4 -4,4"/>
<text text-anchor="middle" x="574" y="-602" font-family="Helvetica,sans-Serif" font-size="20.00" fill="#e6edf3">Serialization modes (serial.py): spelling × state; all decode to the same canonical list</text>
<text text-anchor="middle" x="574" y="-580" font-family="Helvetica,sans-Serif" font-size="20.00" fill="#e6edf3">edge labels: Δγ, symbol coder, order 3, SYNTHETIC corpus (examples/phase2_synthetic) — not real&#45;data evidence</text>
<text text-anchor="middle" x="574" y="-558" font-family="Helvetica,sans-Serif" font-size="20.00" fill="#e6edf3"> </text>
<g id="clust1" class="cluster">
<title>cluster_explicit</title>
<path fill="#0d1117" stroke="#f0883e" d="M89.5,-424C89.5,-424 683.5,-424 683.5,-424 689.5,-424 695.5,-430 695.5,-436 695.5,-436 695.5,-528 695.5,-528 695.5,-534 689.5,-540 683.5,-540 683.5,-540 89.5,-540 89.5,-540 83.5,-540 77.5,-534 77.5,-528 77.5,-528 77.5,-436 77.5,-436 77.5,-430 83.5,-424 89.5,-424"/>
<text text-anchor="middle" x="386.5" y="-526.4" font-family="Helvetica,sans-Serif" font-size="12.00" fill="#f0883e">explicit state</text>
<text text-anchor="middle" x="386.5" y="-513.4" font-family="Helvetica,sans-Serif" font-size="12.00" fill="#f0883e">versions, composite ENT, OUT serialized</text>
</g>
<g id="clust2" class="cluster">
<title>cluster_implicit</title>
<path fill="#0d1117" stroke="#3fb950" d="M552.5,-300C552.5,-300 1058.5,-300 1058.5,-300 1064.5,-300 1070.5,-306 1070.5,-312 1070.5,-312 1070.5,-404 1070.5,-404 1070.5,-410 1064.5,-416 1058.5,-416 1058.5,-416 552.5,-416 552.5,-416 546.5,-416 540.5,-410 540.5,-404 540.5,-404 540.5,-312 540.5,-312 540.5,-306 546.5,-300 552.5,-300"/>
<text text-anchor="middle" x="805.5" y="-402.4" font-family="Helvetica,sans-Serif" font-size="12.00" fill="#3fb950">implicit state</text>
<text text-anchor="middle" x="805.5" y="-389.4" font-family="Helvetica,sans-Serif" font-size="12.00" fill="#3fb950">decoder replays state.transition</text>
</g>
<g id="clust3" class="cluster">
<title>cluster_ckpt</title>
<path fill="#0d1117" stroke="#bc8cff" d="M474.5,-8C474.5,-8 725.5,-8 725.5,-8 731.5,-8 737.5,-14 737.5,-20 737.5,-20 737.5,-280 737.5,-280 737.5,-286 731.5,-292 725.5,-292 725.5,-292 474.5,-292 474.5,-292 468.5,-292 462.5,-286 462.5,-280 462.5,-280 462.5,-20 462.5,-20 462.5,-14 468.5,-8 474.5,-8"/>
<text text-anchor="middle" x="600" y="-278.4" font-family="Helvetica,sans-Serif" font-size="12.00" fill="#bc8cff">checkpointed</text>
<text text-anchor="middle" x="600" y="-265.4" font-family="Helvetica,sans-Serif" font-size="12.00" fill="#bc8cff">S1 + CK snapshot every k actions</text>
</g>
<!-- S0 -->
<g id="node1" class="node">
<title>S0</title>
<path fill="#161b22" stroke="#f0883e" stroke-width="2" d="M272.5,-497.5C272.5,-497.5 97.5,-497.5 97.5,-497.5 91.5,-497.5 85.5,-491.5 85.5,-485.5 85.5,-485.5 85.5,-444.5 85.5,-444.5 85.5,-438.5 91.5,-432.5 97.5,-432.5 97.5,-432.5 272.5,-432.5 272.5,-432.5 278.5,-432.5 284.5,-438.5 284.5,-444.5 284.5,-444.5 284.5,-485.5 284.5,-485.5 284.5,-491.5 278.5,-497.5 272.5,-497.5"/>
<text text-anchor="middle" x="185" y="-474.9" font-family="Helvetica,sans-Serif" font-size="12.00" fill="#e6edf3">S0 &#160;ascii</text>
<text text-anchor="middle" x="185" y="-461.9" font-family="Helvetica,sans-Serif" font-size="12.00" fill="#e6edf3">γ 1.91</text>
<text text-anchor="middle" x="185" y="-448.9" font-family="Helvetica,sans-Serif" font-size="12.00" fill="#e6edf3">&#39;MIX e0.0 e1.0&#39; / &#39;OUT e2.0&#39;</text>
</g>
<!-- S3 -->
<g id="node2" class="node">
<title>S3</title>
<path fill="#161b22" stroke="#f0883e" stroke-width="2" d="M675.5,-497.5C675.5,-497.5 524.5,-497.5 524.5,-497.5 518.5,-497.5 512.5,-491.5 512.5,-485.5 512.5,-485.5 512.5,-444.5 512.5,-444.5 512.5,-438.5 518.5,-432.5 524.5,-432.5 524.5,-432.5 675.5,-432.5 675.5,-432.5 681.5,-432.5 687.5,-438.5 687.5,-444.5 687.5,-444.5 687.5,-485.5 687.5,-485.5 687.5,-491.5 681.5,-497.5 675.5,-497.5"/>
<text text-anchor="middle" x="600" y="-474.9" font-family="Helvetica,sans-Serif" font-size="12.00" fill="#e6edf3">S3 &#160;compact</text>
<text text-anchor="middle" x="600" y="-461.9" font-family="Helvetica,sans-Serif" font-size="12.00" fill="#e6edf3">γ 1.79</text>
<text text-anchor="middle" x="600" y="-448.9" font-family="Helvetica,sans-Serif" font-size="12.00" fill="#e6edf3">opcode bytes + varints</text>
</g>
<!-- S0&#45;&gt;S3 -->
<g id="edge1" class="edge">
<title>S0&#45;&gt;S3</title>
<path fill="none" stroke="#f0883e" stroke-width="1.6" d="M284.66,-465C350.86,-465 437.62,-465 503.22,-465"/>
<polygon fill="#f0883e" stroke="#f0883e" stroke-width="1.6" points="503.33,-468.15 512.33,-465 503.33,-461.85 503.33,-468.15"/>
<text text-anchor="middle" x="377.5" y="-468" font-family="Helvetica,sans-Serif" font-size="10.00" fill="#adbac7">spelling &#160;+0.117</text>
</g>
<!-- S1a -->
<g id="node3" class="node">
<title>S1a</title>
<path fill="#1f2937" stroke="#3fb950" stroke-width="2" d="M639.5,-373.5C639.5,-373.5 560.5,-373.5 560.5,-373.5 554.5,-373.5 548.5,-367.5 548.5,-361.5 548.5,-361.5 548.5,-320.5 548.5,-320.5 548.5,-314.5 554.5,-308.5 560.5,-308.5 560.5,-308.5 639.5,-308.5 639.5,-308.5 645.5,-308.5 651.5,-314.5 651.5,-320.5 651.5,-320.5 651.5,-361.5 651.5,-361.5 651.5,-367.5 645.5,-373.5 639.5,-373.5"/>
<text text-anchor="middle" x="600" y="-350.9" font-family="Helvetica,sans-Serif" font-size="12.00" fill="#e6edf3">S1a &#160;ascii</text>
<text text-anchor="middle" x="600" y="-337.9" font-family="Helvetica,sans-Serif" font-size="12.00" fill="#e6edf3">γ 1.62</text>
<text text-anchor="middle" x="600" y="-324.9" font-family="Helvetica,sans-Serif" font-size="12.00" fill="#e6edf3">&#39;MIX e0 e1&#39;</text>
</g>
<!-- S0&#45;&gt;S1a -->
<g id="edge3" class="edge">
<title>S0&#45;&gt;S1a</title>
<path fill="none" stroke="#f0883e" stroke-width="1.6" stroke-dasharray="5,2" d="M284.66,-435.38C364.13,-411.52 473.22,-378.76 539.77,-358.78"/>
<polygon fill="#f0883e" stroke="#f0883e" stroke-width="1.6" points="540.75,-361.78 548.47,-356.17 538.94,-355.74 540.75,-361.78"/>
<text text-anchor="middle" x="377.5" y="-424" font-family="Helvetica,sans-Serif" font-size="10.00" fill="#adbac7">explicit state &#160;+0.291</text>
</g>
<!-- S1 -->
<g id="node4" class="node">
<title>S1</title>
<path fill="#1f2937" stroke="#3fb950" stroke-width="2" d="M1050.5,-360C1050.5,-360 927.5,-360 927.5,-360 921.5,-360 915.5,-354 915.5,-348 915.5,-348 915.5,-320 915.5,-320 915.5,-314 921.5,-308 927.5,-308 927.5,-308 1050.5,-308 1050.5,-308 1056.5,-308 1062.5,-314 1062.5,-320 1062.5,-320 1062.5,-348 1062.5,-348 1062.5,-354 1056.5,-360 1050.5,-360"/>
<text text-anchor="middle" x="989" y="-337.4" font-family="Helvetica,sans-Serif" font-size="12.00" fill="#e6edf3">S1 &#160;compact</text>
<text text-anchor="middle" x="989" y="-324.4" font-family="Helvetica,sans-Serif" font-size="12.00" fill="#e6edf3">γ 1.60 &#160;(= arm C0)</text>
</g>
<!-- S3&#45;&gt;S1 -->
<g id="edge2" class="edge">
<title>S3&#45;&gt;S1</title>
<path fill="none" stroke="#f0883e" stroke-width="1.6" d="M687.5,-439.77C704.15,-434.71 721.4,-429.31 737.5,-424 795.67,-404.83 860.76,-381.38 910,-363.23"/>
<polygon fill="#f0883e" stroke="#f0883e" stroke-width="1.6" points="911.34,-366.09 918.7,-360.02 909.16,-360.18 911.34,-366.09"/>
<text text-anchor="middle" x="822.5" y="-415" font-family="Helvetica,sans-Serif" font-size="10.00" fill="#adbac7">explicit state &#160;+0.198</text>
</g>
<!-- S1a&#45;&gt;S1 -->
<g id="edge4" class="edge">
<title>S1a&#45;&gt;S1</title>
<path fill="none" stroke="#3fb950" stroke-width="1.6" stroke-dasharray="5,2" d="M651.59,-340.08C716.27,-338.92 829.07,-336.87 906.07,-335.48"/>
<polygon fill="#3fb950" stroke="#3fb950" stroke-width="1.6" points="906.33,-338.63 915.28,-335.32 906.22,-332.33 906.33,-338.63"/>
<text text-anchor="middle" x="822.5" y="-340" font-family="Helvetica,sans-Serif" font-size="10.00" fill="#adbac7">spelling &#160;+0.023</text>
</g>
<!-- K4 -->
<g id="node5" class="node">
<title>K4</title>
<path fill="#161b22" stroke="#bc8cff" stroke-width="2" d="M624.5,-250C624.5,-250 575.5,-250 575.5,-250 569.5,-250 563.5,-244 563.5,-238 563.5,-238 563.5,-210 563.5,-210 563.5,-204 569.5,-198 575.5,-198 575.5,-198 624.5,-198 624.5,-198 630.5,-198 636.5,-204 636.5,-210 636.5,-210 636.5,-238 636.5,-238 636.5,-244 630.5,-250 624.5,-250"/>
<text text-anchor="middle" x="600" y="-227.4" font-family="Helvetica,sans-Serif" font-size="12.00" fill="#e6edf3">S2k4</text>
<text text-anchor="middle" x="600" y="-214.4" font-family="Helvetica,sans-Serif" font-size="12.00" fill="#e6edf3">γ 1.69</text>
</g>
<!-- K4&#45;&gt;S1 -->
<g id="edge5" class="edge">
<title>K4&#45;&gt;S1</title>
<path fill="none" stroke="#bc8cff" stroke-width="1.6" d="M636.71,-234.15C697.71,-251.49 823.42,-287.22 906.73,-310.9"/>
<polygon fill="#bc8cff" stroke="#bc8cff" stroke-width="1.6" points="905.89,-313.94 915.41,-313.37 907.61,-307.88 905.89,-313.94"/>
<text text-anchor="middle" x="822.5" y="-304" font-family="Helvetica,sans-Serif" font-size="10.00" fill="#adbac7">+0.094</text>
</g>
<!-- K8 -->
<g id="node6" class="node">
<title>K8</title>
<path fill="#161b22" stroke="#bc8cff" stroke-width="2" d="M624.5,-166C624.5,-166 575.5,-166 575.5,-166 569.5,-166 563.5,-160 563.5,-154 563.5,-154 563.5,-126 563.5,-126 563.5,-120 569.5,-114 575.5,-114 575.5,-114 624.5,-114 624.5,-114 630.5,-114 636.5,-120 636.5,-126 636.5,-126 636.5,-154 636.5,-154 636.5,-160 630.5,-166 624.5,-166"/>
<text text-anchor="middle" x="600" y="-143.4" font-family="Helvetica,sans-Serif" font-size="12.00" fill="#e6edf3">S2k8</text>
<text text-anchor="middle" x="600" y="-130.4" font-family="Helvetica,sans-Serif" font-size="12.00" fill="#e6edf3">γ 1.61</text>
</g>
<!-- K8&#45;&gt;S1 -->
<g id="edge6" class="edge">
<title>K8&#45;&gt;S1</title>
<path fill="none" stroke="#bc8cff" stroke-width="1.6" d="M636.67,-149.11C664.56,-156.68 704.09,-168.39 737.5,-182 801.38,-208.02 816.68,-216.97 875.5,-253 899.99,-268 926.1,-286.62 946.99,-302.22"/>
<polygon fill="#bc8cff" stroke="#bc8cff" stroke-width="1.6" points="945.35,-304.93 954.44,-307.82 949.14,-299.9 945.35,-304.93"/>
<text text-anchor="middle" x="822.5" y="-256" font-family="Helvetica,sans-Serif" font-size="10.00" fill="#adbac7">+0.015</text>
</g>
<!-- K16 -->
<g id="node7" class="node">
<title>K16</title>
<path fill="#161b22" stroke="#bc8cff" stroke-width="2" d="M717.5,-81.5C717.5,-81.5 482.5,-81.5 482.5,-81.5 476.5,-81.5 470.5,-75.5 470.5,-69.5 470.5,-69.5 470.5,-28.5 470.5,-28.5 470.5,-22.5 476.5,-16.5 482.5,-16.5 482.5,-16.5 717.5,-16.5 717.5,-16.5 723.5,-16.5 729.5,-22.5 729.5,-28.5 729.5,-28.5 729.5,-69.5 729.5,-69.5 729.5,-75.5 723.5,-81.5 717.5,-81.5"/>
<text text-anchor="middle" x="600" y="-58.9" font-family="Helvetica,sans-Serif" font-size="12.00" fill="#e6edf3">S2k16</text>
<text text-anchor="middle" x="600" y="-45.9" font-family="Helvetica,sans-Serif" font-size="12.00" fill="#e6edf3">γ 1.60</text>
<text text-anchor="middle" x="600" y="-32.9" font-family="Helvetica,sans-Serif" font-size="12.00" fill="#e6edf3">(few synthetic docs reach 16 actions)</text>
</g>
<!-- K16&#45;&gt;S1 -->
<g id="edge7" class="edge">
<title>K16&#45;&gt;S1</title>
<path fill="none" stroke="#bc8cff" stroke-width="1.6" d="M708.43,-81.59C763.06,-102.14 827.8,-133.04 875.5,-176 915.8,-212.3 949.93,-265.48 969.69,-299.92"/>
<polygon fill="#bc8cff" stroke="#bc8cff" stroke-width="1.6" points="966.99,-301.54 974.17,-307.82 972.48,-298.44 966.99,-301.54"/>
<text text-anchor="middle" x="822.5" y="-179" font-family="Helvetica,sans-Serif" font-size="10.00" fill="#adbac7">+0.000</text>
</g>
</g>
</svg>
