<?xml version="1.0" encoding="UTF-8" standalone="no"?>
<!DOCTYPE svg PUBLIC "-//W3C//DTD SVG 1.1//EN"
 "http://www.w3.org/Graphics/SVG/1.1/DTD/svg11.dtd">
<!-- Generated by graphviz version 2.43.0 (0)
 -->
<!-- Title: decision_logic Pages: 1 -->
<svg width="885pt" height="789pt"
 viewBox="0.00 0.00 885.00 789.00" xmlns="http://www.w3.org/2000/svg" xmlns:xlink="http://www.w3.org/1999/xlink">
<g id="graph0" class="graph" transform="scale(1 1) rotate(0) translate(4 785)">
<title>decision_logic</title>
<polygon fill="#0d1117" stroke="transparent" points="-4,4 -4,-785 881,-785 881,4 -4,4"/>
<text text-anchor="middle" x="438.5" y="-761" font-family="Helvetica,sans-Serif" font-size="20.00" fill="#e6edf3">Preregistered Phase II decision rule (thresholds from spec/prereg.json, primary order 3)</text>
<text text-anchor="middle" x="438.5" y="-739" font-family="Helvetica,sans-Serif" font-size="20.00" fill="#e6edf3"> </text>
<g id="clust1" class="cluster">
<title>cluster_fam</title>
<path fill="#0d1117" stroke="#58a6ff" d="M320.3,-339C320.3,-339 608.3,-339 608.3,-339 614.3,-339 620.3,-345 620.3,-351 620.3,-351 620.3,-646 620.3,-646 620.3,-652 614.3,-658 608.3,-658 608.3,-658 320.3,-658 320.3,-658 314.3,-658 308.3,-652 308.3,-646 308.3,-646 308.3,-351 308.3,-351 308.3,-345 314.3,-339 320.3,-339"/>
<text text-anchor="middle" x="464.3" y="-643.6" font-family="Helvetica,sans-Serif" font-size="13.00" fill="#58a6ff">for each arm × coding family (byte, symbol)</text>
</g>
<!-- rt -->
<g id="node1" class="node">
<title>rt</title>
<polygon fill="#161b22" stroke="#30363d" stroke-width="2" points="232.3,-729 78.11,-711 232.3,-693 386.48,-711 232.3,-729"/>
<text text-anchor="middle" x="232.3" y="-707.9" font-family="Helvetica,sans-Serif" font-size="12.00" fill="#e6edf3">all arms round&#45;trip exactly?</text>
</g>
<!-- inv -->
<g id="node2" class="node">
<title>inv</title>
<path fill="#161b22" stroke="#f85149" stroke-width="2" d="M288.3,-621.5C288.3,-621.5 126.3,-621.5 126.3,-621.5 120.3,-621.5 114.3,-615.5 114.3,-609.5 114.3,-609.5 114.3,-568.5 114.3,-568.5 114.3,-562.5 120.3,-556.5 126.3,-556.5 126.3,-556.5 288.3,-556.5 288.3,-556.5 294.3,-556.5 300.3,-562.5 300.3,-568.5 300.3,-568.5 300.3,-609.5 300.3,-609.5 300.3,-615.5 294.3,-621.5 288.3,-621.5"/>
<text text-anchor="middle" x="207.3" y="-598.9" font-family="Helvetica,sans-Serif" font-size="12.00" fill="#e6edf3">INVALID</text>
<text text-anchor="middle" x="207.3" y="-585.9" font-family="Helvetica,sans-Serif" font-size="12.00" fill="#e6edf3">implementation bug;</text>
<text text-anchor="middle" x="207.3" y="-572.9" font-family="Helvetica,sans-Serif" font-size="12.00" fill="#e6edf3">no measurement trusted</text>
</g>
<!-- rt&#45;&gt;inv -->
<g id="edge1" class="edge">
<title>rt&#45;&gt;inv</title>
<path fill="none" stroke="#f85149" stroke-width="1.6" d="M228.82,-693.31C225.46,-677.2 220.24,-652.16 215.79,-630.76"/>
<polygon fill="#f85149" stroke="#f85149" stroke-width="1.6" points="218.85,-630.02 213.93,-621.85 212.68,-631.31 218.85,-630.02"/>
<text text-anchor="middle" x="231.8" y="-669" font-family="Helvetica,sans-Serif" font-size="10.00" fill="#adbac7">no</text>
</g>
<!-- stop -->
<g id="node3" class="node">
<title>stop</title>
<path fill="#161b22" stroke="#f85149" stroke-width="2" d="M563.8,-628C563.8,-628 354.8,-628 354.8,-628 348.8,-628 342.8,-622 342.8,-616 342.8,-616 342.8,-562 342.8,-562 342.8,-556 348.8,-550 354.8,-550 354.8,-550 563.8,-550 563.8,-550 569.8,-550 575.8,-556 575.8,-562 575.8,-562 575.8,-616 575.8,-616 575.8,-622 569.8,-628 563.8,-628"/>
<text text-anchor="middle" x="459.3" y="-605.4" font-family="Helvetica,sans-Serif" font-size="12.00" fill="#e6edf3">STOP if any:</text>
<text text-anchor="middle" x="459.3" y="-592.4" font-family="Helvetica,sans-Serif" font-size="12.00" fill="#e6edf3">γ 95% CI lower bound &gt; 1.50</text>
<text text-anchor="middle" x="459.3" y="-579.4" font-family="Helvetica,sans-Serif" font-size="12.00" fill="#e6edf3">byte coverage &lt; 0.05</text>
<text text-anchor="middle" x="459.3" y="-566.4" font-family="Helvetica,sans-Serif" font-size="12.00" fill="#e6edf3">γ_covered &lt; 1 while γ_whole ≥ 1</text>
</g>
<!-- rt&#45;&gt;stop -->
<g id="edge2" class="edge">
<title>rt&#45;&gt;stop</title>
<path fill="none" stroke="#8b949e" stroke-width="1.6" d="M258.78,-696C288.12,-680.49 336.83,-654.74 378.9,-632.5"/>
<polygon fill="#8b949e" stroke="#8b949e" stroke-width="1.6" points="380.46,-635.24 386.95,-628.25 377.52,-629.67 380.46,-635.24"/>
<text text-anchor="middle" x="320.3" y="-669" font-family="Helvetica,sans-Serif" font-size="10.00" fill="#adbac7">yes</text>
</g>
<!-- rev -->
<g id="node4" class="node">
<title>rev</title>
<path fill="#1f2937" stroke="#d29922" stroke-width="2" d="M590.3,-507C590.3,-507 328.3,-507 328.3,-507 322.3,-507 316.3,-501 316.3,-495 316.3,-495 316.3,-441 316.3,-441 316.3,-435 322.3,-429 328.3,-429 328.3,-429 590.3,-429 590.3,-429 596.3,-429 602.3,-435 602.3,-441 602.3,-441 602.3,-495 602.3,-495 602.3,-501 596.3,-507 590.3,-507"/>
<text text-anchor="middle" x="459.3" y="-484.4" font-family="Helvetica,sans-Serif" font-size="12.00" fill="#e6edf3">REVISE if any:</text>
<text text-anchor="middle" x="459.3" y="-471.4" font-family="Helvetica,sans-Serif" font-size="12.00" fill="#e6edf3">ρ_R &gt; 0.85</text>
<text text-anchor="middle" x="459.3" y="-458.4" font-family="Helvetica,sans-Serif" font-size="12.00" fill="#e6edf3">γ at 100 MB target (with L_shared) &gt; 1.10</text>
<text text-anchor="middle" x="459.3" y="-445.4" font-family="Helvetica,sans-Serif" font-size="12.00" fill="#e6edf3">byte coverage &lt; 0.30</text>
</g>
<!-- stop&#45;&gt;rev -->
<g id="edge3" class="edge">
<title>stop&#45;&gt;rev</title>
<path fill="none" stroke="#8b949e" stroke-width="1.6" d="M459.3,-549.69C459.3,-539.08 459.3,-527.42 459.3,-516.36"/>
<polygon fill="#8b949e" stroke="#8b949e" stroke-width="1.6" points="462.45,-516.24 459.3,-507.24 456.15,-516.24 462.45,-516.24"/>
<text text-anchor="middle" x="491.3" y="-526" font-family="Helvetica,sans-Serif" font-size="10.00" fill="#adbac7">not triggered</text>
</g>
<!-- arm -->
<g id="node6" class="node">
<title>arm</title>
<path fill="#13294d" stroke="#58a6ff" stroke-width="2" d="M684.3,-314C684.3,-314 450.3,-314 450.3,-314 444.3,-314 438.3,-308 438.3,-302 438.3,-302 438.3,-274 438.3,-274 438.3,-268 444.3,-262 450.3,-262 450.3,-262 684.3,-262 684.3,-262 690.3,-262 696.3,-268 696.3,-274 696.3,-274 696.3,-302 696.3,-302 696.3,-308 690.3,-314 684.3,-314"/>
<text text-anchor="middle" x="567.3" y="-291.4" font-family="Helvetica,sans-Serif" font-size="12.00" fill="#e6edf3">per arm: most severe across families</text>
<text text-anchor="middle" x="567.3" y="-278.4" font-family="Helvetica,sans-Serif" font-size="12.00" fill="#e6edf3">(no coder can be cherry&#45;picked)</text>
</g>
<!-- stop&#45;&gt;arm -->
<g id="edge5" class="edge">
<title>stop&#45;&gt;arm</title>
<path fill="none" stroke="#f85149" stroke-width="1.6" d="M573.19,-549.92C591.15,-538.89 607.37,-524.83 618.3,-507 654.22,-448.38 616.15,-366.69 589.19,-321.8"/>
<polygon fill="#f85149" stroke="#f85149" stroke-width="1.6" points="591.87,-320.14 584.48,-314.13 586.5,-323.44 591.87,-320.14"/>
</g>
<!-- go -->
<g id="node5" class="node">
<title>go</title>
<path fill="#1f2937" stroke="#3fb950" stroke-width="2" d="M506.3,-386C506.3,-386 412.3,-386 412.3,-386 406.3,-386 400.3,-380 400.3,-374 400.3,-374 400.3,-359 400.3,-359 400.3,-353 406.3,-347 412.3,-347 412.3,-347 506.3,-347 506.3,-347 512.3,-347 518.3,-353 518.3,-359 518.3,-359 518.3,-374 518.3,-374 518.3,-380 512.3,-386 506.3,-386"/>
<text text-anchor="middle" x="459.3" y="-363.4" font-family="Helvetica,sans-Serif" font-size="12.00" fill="#e6edf3">GO otherwise</text>
</g>
<!-- rev&#45;&gt;go -->
<g id="edge4" class="edge">
<title>rev&#45;&gt;go</title>
<path fill="none" stroke="#8b949e" stroke-width="1.6" d="M459.3,-428.82C459.3,-417.65 459.3,-405.67 459.3,-395.29"/>
<polygon fill="#8b949e" stroke="#8b949e" stroke-width="1.6" points="462.45,-395.27 459.3,-386.27 456.15,-395.27 462.45,-395.27"/>
<text text-anchor="middle" x="491.3" y="-405" font-family="Helvetica,sans-Serif" font-size="10.00" fill="#adbac7">not triggered</text>
</g>
<!-- rev&#45;&gt;arm -->
<g id="edge6" class="edge">
<title>rev&#45;&gt;arm</title>
<path fill="none" stroke="#d29922" stroke-width="1.6" d="M517.6,-428.87C522.69,-423.96 527.39,-418.65 531.3,-413 549.8,-386.23 558.9,-349.95 563.3,-323.55"/>
<polygon fill="#d29922" stroke="#d29922" stroke-width="1.6" points="566.47,-323.68 564.72,-314.3 560.24,-322.72 566.47,-323.68"/>
</g>
<!-- go&#45;&gt;arm -->
<g id="edge7" class="edge">
<title>go&#45;&gt;arm</title>
<path fill="none" stroke="#3fb950" stroke-width="1.6" d="M485.44,-346.98C497.02,-338.78 510.97,-328.9 524.03,-319.64"/>
<polygon fill="#3fb950" stroke="#3fb950" stroke-width="1.6" points="526.08,-322.06 531.6,-314.28 522.44,-316.92 526.08,-322.06"/>
</g>
<!-- all -->
<g id="node7" class="node">
<title>all</title>
<path fill="#13294d" stroke="#58a6ff" stroke-width="2" d="M681.3,-229C681.3,-229 453.3,-229 453.3,-229 447.3,-229 441.3,-223 441.3,-217 441.3,-217 441.3,-176 441.3,-176 441.3,-170 447.3,-164 453.3,-164 453.3,-164 681.3,-164 681.3,-164 687.3,-164 693.3,-170 693.3,-176 693.3,-176 693.3,-217 693.3,-217 693.3,-223 687.3,-229 681.3,-229"/>
<text text-anchor="middle" x="567.3" y="-206.4" font-family="Helvetica,sans-Serif" font-size="12.00" fill="#e6edf3">overall: least severe across 13 arms</text>
<text text-anchor="middle" x="567.3" y="-193.4" font-family="Helvetica,sans-Serif" font-size="12.00" fill="#e6edf3">+ selection caveat: confirm the arm</text>
<text text-anchor="middle" x="567.3" y="-180.4" font-family="Helvetica,sans-Serif" font-size="12.00" fill="#e6edf3">on a fresh split before Phase III</text>
</g>
<!-- arm&#45;&gt;all -->
<g id="edge8" class="edge">
<title>arm&#45;&gt;all</title>
<path fill="none" stroke="#8b949e" stroke-width="1.6" d="M567.3,-261.59C567.3,-254.31 567.3,-246.19 567.3,-238.23"/>
<polygon fill="#8b949e" stroke="#8b949e" stroke-width="1.6" points="570.45,-238.03 567.3,-229.03 564.15,-238.03 570.45,-238.03"/>
</g>
<!-- syn -->
<g id="node8" class="node">
<title>syn</title>
<polygon fill="#161b22" stroke="#30363d" stroke-width="2" points="567.3,-131 463.6,-113 567.3,-95 670.99,-113 567.3,-131"/>
<text text-anchor="middle" x="567.3" y="-109.9" font-family="Helvetica,sans-Serif" font-size="12.00" fill="#e6edf3">synthetic corpus?</text>
</g>
<!-- all&#45;&gt;syn -->
<g id="edge9" class="edge">
<title>all&#45;&gt;syn</title>
<path fill="none" stroke="#8b949e" stroke-width="1.6" d="M567.3,-163.76C567.3,-155.96 567.3,-147.71 567.3,-140.21"/>
<polygon fill="#8b949e" stroke="#8b949e" stroke-width="1.6" points="570.45,-140.2 567.3,-131.2 564.15,-140.2 570.45,-140.2"/>
</g>
<!-- pend -->
<g id="node9" class="node">
<title>pend</title>
<path fill="#161b22" stroke="#8b949e" stroke-width="2" d="M547.3,-52C547.3,-52 333.3,-52 333.3,-52 327.3,-52 321.3,-46 321.3,-40 321.3,-40 321.3,-12 321.3,-12 321.3,-6 327.3,0 333.3,0 333.3,0 547.3,0 547.3,0 553.3,0 559.3,-6 559.3,-12 559.3,-12 559.3,-40 559.3,-40 559.3,-46 553.3,-52 547.3,-52"/>
<text text-anchor="middle" x="440.3" y="-29.4" font-family="Helvetica,sans-Serif" font-size="12.00" fill="#e6edf3">PENDING_REAL_DATA</text>
<text text-anchor="middle" x="440.3" y="-16.4" font-family="Helvetica,sans-Serif" font-size="12.00" fill="#e6edf3">(diagnostic decision still reported)</text>
</g>
<!-- syn&#45;&gt;pend -->
<g id="edge10" class="edge">
<title>syn&#45;&gt;pend</title>
<path fill="none" stroke="#8b949e" stroke-width="1.6" d="M546.89,-98.34C530.34,-87.27 506.4,-71.24 485.4,-57.19"/>
<polygon fill="#8b949e" stroke="#8b949e" stroke-width="1.6" points="487.04,-54.5 477.81,-52.11 483.54,-59.73 487.04,-54.5"/>
<text text-anchor="middle" x="523.3" y="-71" font-family="Helvetica,sans-Serif" font-size="10.00" fill="#adbac7">yes</text>
</g>
<!-- fin -->
<g id="node10" class="node">
<title>fin</title>
<path fill="#1f2937" stroke="#3fb950" stroke-width="2" d="M786.8,-52C786.8,-52 603.8,-52 603.8,-52 597.8,-52 591.8,-46 591.8,-40 591.8,-40 591.8,-12 591.8,-12 591.8,-6 597.8,0 603.8,0 603.8,0 786.8,0 786.8,0 792.8,0 798.8,-6 798.8,-12 798.8,-12 798.8,-40 798.8,-40 798.8,-46 792.8,-52 786.8,-52"/>
<text text-anchor="middle" x="695.3" y="-29.4" font-family="Helvetica,sans-Serif" font-size="12.00" fill="#e6edf3">decision</text>
<text text-anchor="middle" x="695.3" y="-16.4" font-family="Helvetica,sans-Serif" font-size="12.00" fill="#e6edf3">training permitted only if GO</text>
</g>
<!-- syn&#45;&gt;fin -->
<g id="edge11" class="edge">
<title>syn&#45;&gt;fin</title>
<path fill="none" stroke="#8b949e" stroke-width="1.6" d="M587.86,-98.34C604.54,-87.27 628.67,-71.24 649.84,-57.19"/>
<polygon fill="#8b949e" stroke="#8b949e" stroke-width="1.6" points="651.73,-59.71 657.49,-52.11 648.25,-54.46 651.73,-59.71"/>
<text text-anchor="middle" x="637.8" y="-71" font-family="Helvetica,sans-Serif" font-size="10.00" fill="#adbac7">no</text>
</g>
</g>
</svg>
